<svg width="71" height="59" viewBox="0 0 71 59" fill="none" xmlns="http://www.w3.org/2000/svg">
<g clip-path="url(#clip0_55_21)">
<path d="M50.2916 4.9165H20.7083C12.5391 4.9165 5.91663 10.4197 5.91663 17.2082V41.7915C5.91663 48.58 12.5391 54.0832 20.7083 54.0832H50.2916C58.4608 54.0832 65.0833 48.58 65.0833 41.7915V17.2082C65.0833 10.4197 58.4608 4.9165 50.2916 4.9165Z" stroke="#F7F7F7" stroke-width="2" stroke-linecap="round" stroke-linejoin="round"/>
<path d="M47.3334 27.951C47.6985 29.997 47.2779 32.0865 46.1316 33.9223C44.9852 35.7582 43.1714 37.247 40.9482 38.1769C38.7249 39.1068 36.2054 39.4304 33.7481 39.1018C31.2907 38.7733 29.0206 37.8091 27.2606 36.3466C25.5006 34.8841 24.3404 32.9977 23.945 30.9556C23.5496 28.9136 23.9391 26.8199 25.0581 24.9724C26.1771 23.1249 27.9687 21.6177 30.1779 20.6651C32.3872 19.7125 34.9017 19.363 37.3638 19.6664C39.8752 19.9759 42.2002 20.9484 43.9955 22.4402C45.7907 23.932 46.961 25.8641 47.3334 27.951Z" stroke="#F7F7F7" stroke-width="2" stroke-linecap="round" stroke-linejoin="round"/>
<path d="M51.7709 15.979H51.8005" stroke="#F7F7F7" stroke-width="2" stroke-linecap="round" stroke-linejoin="round"/>
<path d="M26.625 44.2502C13.2829 49.1668 11.8333 39.3335 5.91663 39.3335" stroke="black" stroke-width="2" stroke-linecap="round" stroke-linejoin="round"/>
</g>
<defs>
<clipPath id="clip0_55_21">
<rect width="71" height="59" fill="white"/>
</clipPath>
</defs>
</svg>
