<svg width="63" height="56" viewBox="0 0 63 56" fill="none" xmlns="http://www.w3.org/2000/svg">
<path d="M39.375 51.3332V41.9998C39.7402 39.0768 38.7973 36.1435 36.75 33.8332C44.625 33.8332 52.5 29.1665 52.5 20.9998C52.71 18.0832 51.7913 15.2132 49.875 12.8332C50.61 10.1498 50.61 7.34984 49.875 4.6665C49.875 4.6665 47.25 4.6665 42 8.1665C35.07 6.99984 27.93 6.99984 21 8.1665C15.75 4.6665 13.125 4.6665 13.125 4.6665C12.3375 7.34984 12.3375 10.1498 13.125 12.8332C11.2137 15.2036 10.286 18.0897 10.5 20.9998C10.5 29.1665 18.375 33.8332 26.25 33.8332C25.2263 34.9765 24.465 36.2832 24.0188 37.6832C23.5725 39.0832 23.4413 40.5532 23.625 41.9998V51.3332" stroke="#F7F7F7" stroke-width="2" stroke-linecap="round" stroke-linejoin="round"/>
<path d="M23.625 42.0002C11.7862 46.6668 10.5 37.3335 5.25 37.3335" stroke="#F7F7F7" stroke-width="2" stroke-linecap="round" stroke-linejoin="round"/>
</svg>
