<svg width="64" height="58" viewBox="0 0 64 58" fill="none" xmlns="http://www.w3.org/2000/svg">
<path d="M42.6667 19.3335C46.9102 19.3335 50.9798 20.8612 53.9804 23.5804C56.981 26.2997 58.6667 29.9879 58.6667 33.8335V50.7502H48V33.8335C48 32.5516 47.4381 31.3222 46.4379 30.4158C45.4377 29.5094 44.0812 29.0002 42.6667 29.0002C41.2522 29.0002 39.8956 29.5094 38.8955 30.4158C37.8953 31.3222 37.3334 32.5516 37.3334 33.8335V50.7502H26.6667V33.8335C26.6667 29.9879 28.3524 26.2997 31.353 23.5804C34.3536 20.8612 38.4232 19.3335 42.6667 19.3335Z" stroke="#F7F7F7" stroke-width="2" stroke-linecap="round" stroke-linejoin="round"/>
<path d="M16 21.75H5.33331V50.75H16V21.75Z" stroke="#F7F7F7" stroke-width="2" stroke-linecap="round" stroke-linejoin="round"/>
<path d="M10.6666 14.5002C13.6122 14.5002 16 12.3362 16 9.66683C16 6.99745 13.6122 4.8335 10.6666 4.8335C7.72113 4.8335 5.33331 6.99745 5.33331 9.66683C5.33331 12.3362 7.72113 14.5002 10.6666 14.5002Z" stroke="#F7F7F7" stroke-width="2" stroke-linecap="round" stroke-linejoin="round"/>
</svg>
